<?xml version="1.0" encoding="UTF-8" standalone="no"?>
<svg xmlns="http://www.w3.org/2000/svg" xmlns:xlink="http://www.w3.org/1999/xlink" width="808" height="475pt">
  <defs>
    <radialGradient xlink:href="#a" id="d" cx=".7638225" cy="-.20921162" r="1.16772366" fx=".7638225" fy="-.20921162"/>
    <radialGradient xlink:href="#a" id="e" cx=".41422567" cy="-.05001889" r="1.10259664" fx=".41422567" fy="-.05001889" gradientTransform="translate(-3e-8 -.0000017)"/>
    <radialGradient xlink:href="#a" id="f" cx="1.02083206" cy=".9443571" r=".88037598" fx="1.02083206" fy=".9443571"/>
    <radialGradient xlink:href="#a" id="g" cx="-.19149126" cy=".9590854" r="1.09769762" fx="-.19149126" fy=".9590854"/>
    <radialGradient xlink:href="#b" id="h" cx=".17181525" cy=".10937142" r="1.65894818" fx=".17181525" fy=".10937142"/>
    <linearGradient id="b">
      <stop offset="0" stop-color="#ffe51a"/>
      <stop offset="1" stop-color="#e60000" stop-opacity="0"/>
    </linearGradient>
    <linearGradient id="a">
      <stop offset="0" stop-color="#fff"/>
      <stop offset="1" stop-opacity=".4784"/>
    </linearGradient>
    <linearGradient xlink:href="#b" id="c" x1=".39680198" x2="1.0363363" y1=".57735848" y2="-.29056594" gradientUnits="objectBoundingBox" spreadMethod="pad"/>
  </defs>
  <path fill="#e60000" fill-rule="evenodd" stroke="#000" stroke-width="1.2500052" d="M163.10790368 183.70549908c46.51028378-15.44515863 75.76604643-14.863615 118.38781423-12.88894292 30.82213763 5.05414045 72.81129214 9.09072593 121.78235316 41.3298679 30.11451373 17.2764453 65.92840223 50.8915407 86.4813082-19.95269101 16.59022512-78.73585487 74.667951-84.75383932 88.964465-89.12946232 7.02516935-2.15016958 17.5238567-2.70135766 27.20334757-2.68736392-11.57733075 9.76761694-69.67041006 13.86315698-80.32523397 109.13562359 1.71574562 68.70002134-26.0236708 105.33544838-89.11494162 114.57014522-33.3972849 5.32646863-42.56341177 43.86123187-59.42056536 77.88943859-12.29256631 24.81094512-28.96515347 60.7071306-67.53127413 80.94340463-89.65296219 45.61497072-188.24005833 17.22791286-231.0027589-67.51286303-42.76270708-84.74077589-7.26490403-187.37753395 79.28655502-229.24561757 1.8446884-.89232044 3.41483668-1.62011198 5.2889308-2.45153916z" font-size="12"/>
  <path fill="url(#c)" d="M212.9438 210.5977c67.2159-22.5376 96.73-19.9 158.3263-9.8391 52.4017 12.6688 114.2334 48.6373 181.3562 96.4652 96.6483 43.876 130.5375 26.7333 158.0472-12.4267 15.2035-44.0324 7.6081-117.8416 63.2578-158.0488 11.3189-7.8028 48.6508-36.59808 61.4731-41.24285-26.0615 20.08445-42.3606 40.21755-62.145 64.09295-32.6096 39.3527-25.2402 70.896-27.1032 123.7485-3.2747 38.8165-17.8908 70.7972-59.7633 87.287-27.9886 9.6121-36.8612 8.1982-65.5369 12.8161-48.2653 7.7723-75.8374 110.5387-97.7453 158.9646-42.4357 74.1599-45.8996 84.19-98.5527 114.7914-129.565 66.5616-272.0415 25.1389-333.84137-98.515-61.79994-123.6542-10.4991-273.422 114.58367-334.5161 2.6659-1.3019 4.935-2.3639 7.6435-3.5772z" font-size="12" transform="translate(27.53609 56.131) scale(.65057)"/>
  <g font-size="12" transform="translate(-24.50943 -152.8642) scale(.65057)">
    <g fill="#fff" fill-rule="evenodd" transform="translate(7.499999 239.9999)">
      <path stroke="#000" stroke-width="1pt" d="M606.6165 519.8971a210.7238 210.7238 0 1 0-421.4477 0 210.7238 210.7238 0 1 0 421.4477 0z" transform="matrix(1.08319 0 0 1.09002 -54.30058 -46.14789)"/>
      <path d="M438.7692 389.4389c28.754-21.9481 46.9658-31.5022 59.5338-34.8537 25.3063 21.532 51.4507 48.0912 68.3785 74.6504-3.5548 23.6306-8.7853 46.4236-15.6915 68.3786-26.579-6.3676-53.158-12.7351-79.737-19.1026-10.8279-29.6909-21.6559-59.3818-32.4838-89.0727zM300.5661 316.881c25.3063 21.532 18.7738 20.4416 35.7016 47.0008-9.4199 11.9004-57.3816 52.2887-68.4773 72.5679-24.9031-3.0161-44.7792.6708-71.3582-5.6966-.7735-39.7454 22.7511-67.7605 21.9776-72.3154 20.1088-15.9195 69.5882-38.2052 82.1563-41.5567zm99.7063 237.9545c8.8374 25.5844 12.0709 68.2001 14.7549 96.4351-9.4199 11.9004-65.2472 32.2824-89.7489 39.1556-31.0759-18.2602-54.6052-49.4764-71.1298-72.6011 13.4702-38.0696 32.0642-64.6366 43.8587-80.9216 34.0884 5.9773 68.1768 11.9547 102.2651 17.932zM181.682 600.0054c-3.6747 18.3085 1.6269 31.0288 5.1885 44.9732-1.02.5927-1.8375.0711-2.6732 1.9161-34.2594-46.4666-41.3947-114.2565-38.218-136.5077 2.4896.232 4.0952.4642 6.5847.9172 3.5355 33.5876 16.4903 68.863 29.118 88.7012zm406.7146 2.5871c-18.1337 49.5818-64.8679 98.9601-90.7826 109.8369-3.6077-.4074-6.8444-.0132-9.9449-.5291 13.2347-20.8775 10.3009-39.0014 11.4975-47.5146 27.0232-9.5663 51.6912-57.7558 65.9969-73.2098 8.0073 1.6486 11.5998 3.6708 23.2331 11.4166zM357.4923 750.2749c-3.6077-.4074-29.7992-4.271-32.8997-4.7869-23.4191-4.9572-60.2298-20.4894-68.6594-28.4472 20.7291 8.9458 41.5097 14.9962 50.4469 18.2394 5.3377.5968 8.0839 1.3787 19.1604-2.8376-.1851 13.2052 46.8427 15.46 54.055 17.5863-5.3685 1.1107-7.6659-.0789-22.1032.246z"/>
      <path stroke="#000" stroke-width="1.125" d="M267.2126 436.3037c-1.7346 28.012 10.7659 66.7965 30.5763 100.1947m140.9672-147.9895c-11.2933-8.3846-60.5569-20.335-103.6134-24.8039m64.7907 191.4947c32.0886-31.5462 48.6332-48.6435 71.3847-77.3769m-56.3113 173.3317c32.8239 14.4092 54.883 17.1646 83.8845 13.7986m-174.3246 24.2014c-3.5728 21.3944-.9989 30.6346.4295 42.7096m-70.1588-114.0893c-55.517.5394-61.3094-8.4316-73.3981-17.5012m15.2226-169.4669c-29.6658 30.4119-36.4796 57.5736-43.9726 81.9669m62.68-157.6743c2.361 1.5447 2.0735 1.3025 2.9104 2.5732m229.214-54.0493c26.1849 17.5718 43.9186 40.9144 50.6346 50.9061m66.709 235.7455c-.0923-20.3348-3.8093-83.4316-15.898-92.5012m43.8778-49.3617c-6.7551-10.5208-13.2729-15.3792-26.1358-18.6141m-183.7374-137.64c-49.6286 5.9969-70.1925 16.7174-81.8503 24.4509"/>
    </g>
    <path fill="none" stroke="#000" d="M606.6165 519.8971a210.7238 210.7238 0 1 0-421.4477 0 210.7238 210.7238 0 1 0 421.4477 0z" transform="matrix(1.08319 0 0 1.09002 -46.80058 193.852)"/>
    <path fill-rule="evenodd" d="M446.269199 629.4388c28.754-21.9481 46.9658-31.5022 59.5338-34.8537 25.3063 21.532 51.4507 48.0912 68.3785 74.6504-3.5548 23.6306-8.7853 46.4236-15.6915 68.3786-26.579-6.3676-53.158-12.7351-79.737-19.1026-10.8279-29.6909-21.6559-59.3818-32.4838-89.0727zm-138.2031-72.5579c25.3063 21.532 18.7738 20.4416 35.7016 47.0008-9.4199 11.9004-57.3816 52.2887-68.4773 72.5679-24.9031-3.0161-44.7792.6708-71.3582-5.6966-.7735-39.7454 22.7511-67.7605 21.9776-72.3154 20.1088-15.9195 69.5882-38.2052 82.1563-41.5567zm99.7063 237.9545c8.8374 25.5844 12.0709 68.2001 14.7549 96.4351-9.4199 11.9004-65.2472 32.2824-89.7489 39.1556-31.0759-18.2602-54.6052-49.4764-71.1298-72.6011 13.4702-38.0696 32.0642-64.6366 43.8587-80.9216 34.0884 5.9773 68.1768 11.9547 102.2651 17.932zm-218.5904 45.1699c-3.6747 18.3085 1.6269 31.0288 5.1885 44.9732-1.02.5927-1.8375.0711-2.6732 1.9161-34.2594-46.4666-41.3947-114.2565-38.218-136.5077 2.4896.232 4.0952.4642 6.5847.9172 3.5355 33.5876 16.4903 68.863 29.118 88.7012zm406.7146 2.5871c-18.1337 49.5818-64.8679 98.9601-90.7826 109.8369-3.6077-.4074-6.8444-.0132-9.9449-.5291 13.2347-20.8775 10.3009-39.0014 11.4975-47.5146 27.0232-9.5663 51.6912-57.7558 65.9969-73.2098 8.0073 1.6486 11.5998 3.6708 23.2331 11.4166zm-230.9043 147.6824c-3.6077-.4074-29.7992-4.271-32.8997-4.7869-23.4191-4.9572-60.2298-20.4894-68.6594-28.4472 20.7291 8.9458 41.5097 14.9962 50.4469 18.2394 5.3377.5968 8.0839 1.3787 19.1604-2.8376-.1851 13.2052 46.8427 15.46 54.055 17.5863-5.3685 1.1107-7.6659-.0789-22.1032.246z"/>
    <path fill="none" stroke="#000" stroke-width="1.125" d="M274.712599 676.3036c-1.7346 28.012 10.7659 66.7965 30.5763 100.1947m140.9672-147.9895c-11.2933-8.3846-60.5569-20.335-103.6134-24.8039m64.7907 191.4947c32.0886-31.5462 48.6332-48.6435 71.3847-77.3769m-56.3113 173.3317c32.8239 14.4092 54.883 17.1646 83.8845 13.7986m-174.3246 24.2014c-3.5728 21.3944-.9989 30.6346.4295 42.7096m-70.1588-114.0893c-55.517.5394-61.3094-8.4316-73.3981-17.5012m15.2226-169.4669c-29.6658 30.4119-36.4796 57.5736-43.9726 81.9669m62.68-157.6743c2.361 1.5447 2.0735 1.3025 2.9104 2.5732m229.214-54.0493c26.1849 17.5718 43.9186 40.9144 50.6346 50.9061m66.709 235.7455c-.0923-20.3348-3.8093-83.4316-15.898-92.5012m43.8778-49.3617c-6.7551-10.5208-13.2729-15.3792-26.1358-18.6141m-183.7374-137.64c-49.6286 5.9969-70.1925 16.7174-81.8503 24.4509"/>
    <path fill="url(#d)" fill-rule="evenodd" d="M287.9969 598.0283c11.6078-1.1712 15.0497-21.1401 17.5867-27.8696 7.4066-19.646 13.4097-24.1574 28.3812-20.1777 14.3246-.5347 42.9702 4.6647 64.5995 8.5597 1.34 9.0197-1.4049 41.6882 1.0119 50.5392 2.0099 7.3609 9.0618-1.4691 8.7849 21.6424-2.3505-6.113-6.2254-55.2286-10.2314-72.2985-10.9757-5.8259-22.0467-4.5459-40.7732-9.1909-18.4691-4.5812-39.5128-6.8877-58.0816-10.9297-5.686 4.176-8.1067 13.5755-13.4789 17.5836l-10.3274 23.2538s2.6751 19.8819 12.5283 18.8877z" transform="translate(7.499999 239.9999)"/>
    <path fill="url(#e)" fill-rule="evenodd" d="M479.4826 716.9838c15.5381 5.0766 29.2606 6.6735 46.5736 10.9882 8.2746 1.9245 23.5267 6.4054 31.2727 8.23-4.4028-3.8947-13.5707-7.5214-16.2182-8.0399-3.3288-.652-21.9812-5.6746-25.4716-7.3305-10.1491-1.8646-16.9008-2.948-23.734-3.8415-.4702.1235-9.6032.0214-12.4225-.0063zm-32.2368-88.1986c4.646 18.1614 12.1931 32.5619 18.9705 52.0362 3.4036 9.2293 8.5635 26.7712 11.7221 35.4241 1.6138-6.5406-.3742-17.6148-1.5793-20.5125-1.515-3.6436-8.3705-24.8367-8.7994-29.209-4.7659-11.0387-8.124-18.2928-11.7649-25.5195-.4711-.3923-6.6403-9.431-8.549-12.2193zm-165.1391 36.0845c9.1301-13.3462 35.5587-35.7235 47.6992-47.9249 4.285-3.944 8.2046-5.549 12.2329-12.536-4.4071 2.6212-22.4506 18.1712-23.7494 20.6089-1.6333 3.0648-18.1785 16.2893-20.6113 19.0434-4.8883 9.4034-7.1126 3.7722-10.1355 10.2742-.0708.5347-11.3898 17.7151-12.3845 20.5586l6.9486-10.0242zm-77.8556 4.9915c10.4836 2.2808 15.5348 3.3793 31.6089 3.5007 7.5182.537 32.0907 1.428 39.1287 2.5203-4.0231-2.7827-12.3644-4.6777-14.7693-4.7649-3.0233-.1099-19.9758-1.916-23.1539-2.8765-9.217-.2277-15.3476-.2425-21.5504-.0807-.4257.1718-8.7075 1.338-11.264 1.7011z"/>
    <path fill="url(#f)" fill-rule="evenodd" d="M589.6465 852.1941c-16.1085 42.4258-57.6231 84.6775-80.6434 93.9845-3.2048-.3486-6.0799-.0112-8.834-.4527 11.7564-17.8644 9.1502-33.3725 10.2133-40.6569 24.0049-8.1858 45.9177-49.4202 58.6259-62.6439 7.1128 1.4107 10.304 3.141 20.6382 9.769z"/>
    <path fill="url(#g)" fill-rule="evenodd" d="M181.682 600.0054c-3.6747 18.3085 1.6269 31.0288 5.1885 44.9732-1.02.5927-1.8375.0711-2.6732 1.9161-34.2594-46.4666-41.3947-114.2565-38.218-136.5077 2.4896.232 4.0952.4642 6.5847.9172 3.5355 33.5876 16.4903 68.863 29.118 88.7012z" transform="translate(7.499999 239.9999)"/>
  </g>
  <path fill="#e60000" fill-rule="evenodd" stroke="#000" stroke-width="1.2500052" d="M619.78431154 98.88828133c0-5.69932924 10.61461875-4.83038375 15.02313452-5.19911324 16.9449804-1.41731662 29.46908422 5.6347993 45.22853273 5.95285598 9.63232462.19442254 17.5926869-5.93116601 25.51466561-10.36362272.71432476-.39976164-1.414337.82571518-2.13907087 1.20705921-9.72470541 5.11830607-16.46264854 15.09518504-25.69298657 21.25833745-15.59973383 10.41605208-24.4354367 2.4731901-38.15749828-6.01603924-6.24962604-3.86632506-11.75194347-5.34592715-19.77677714-6.83947744z" font-size="12"/>
  <path fill="url(#h)" fill-rule="evenodd" d="M931.1294 67.09503c0-4.13627 19.1888-1.19713 23.0037-1.46469 14.6637-1.02859 24.7323 9.47556 38.37 9.70642 8.3349.14107 15.2249-4.3045 22.0799-7.52128.619-.29015-1.224.59921-1.851.876-8.416 3.71453-14.2463 10.95513-22.2342 15.42801-13.4997 7.55936-21.1457 1.79489-33.0204-4.36607-5.4084-2.80594-19.4035-11.57448-26.348-12.65839z" font-size="12" transform="translate(27.53609 56.131) scale(.65057)"/>
</svg>